<svg width="115" height="36" viewBox="0 0 115 36" fill="none" xmlns="http://www.w3.org/2000/svg">
<g clip-path="url(#clip0_29_32)">
<path d="M31.0807 24.4015C31.0807 18.0108 36.7556 12.8027 43.7478 12.8027C50.74 12.8027 56.4782 18.0108 56.4782 24.4015C56.4782 30.7922 50.8118 36.0129 43.7605 36.0129C36.7091 36.0129 31.0807 30.8386 31.0807 24.4015ZM46.6486 24.4015C46.6486 19.43 45.3819 15.4089 43.7605 15.4089C42.1391 15.4089 40.9231 19.43 40.9231 24.4015C40.9231 29.373 42.1898 33.3941 43.7605 33.3941C45.3312 33.3941 46.6486 29.373 46.6486 24.4015Z" fill="#F8F1E1"/>
<path d="M58.8554 28.663V18.1287H58.1671C56.0348 18.1287 56.0855 15.3283 56.0855 14.1921C56.0651 13.9738 56.1304 13.7561 56.2675 13.5851C56.4046 13.4141 56.6028 13.303 56.8202 13.2755H58.8554V7.88161C58.8554 4.47295 61.6928 0.0209961 69.027 0.0209961C74.4696 0.0209961 79.2029 2.86366 79.2029 6.64824C79.2209 7.21893 79.124 7.78741 78.9181 8.31993C78.7122 8.85245 78.4014 9.33815 78.0042 9.74819C77.607 10.1582 77.1315 10.4843 76.6059 10.7069C76.0803 10.9295 75.5154 11.0443 74.9446 11.0443C74.3739 11.0443 73.8089 10.9295 73.2833 10.7069C72.7578 10.4843 72.2823 10.1582 71.8851 9.74819C71.4879 9.33815 71.1771 8.85245 70.9712 8.31993C70.7653 7.78741 70.6684 7.21893 70.6864 6.64824C70.6982 5.83097 70.9396 5.03351 71.3832 4.34705C71.8267 3.6606 72.4544 3.11287 73.1945 2.76651C71.0157 1.92174 68.6977 2.8172 68.6977 7.36208V13.2755H69.6012C71.6406 13.2755 71.6829 15.7633 71.6829 17.3431C71.6726 17.5329 71.5987 17.7136 71.473 17.8562C71.3474 17.9988 71.1773 18.0948 70.9904 18.1287H68.6977V34.2934C68.6977 35.4761 67.2283 35.5268 66.3289 35.5268C61.4563 35.5268 58.8554 31.9745 58.8554 28.663Z" fill="#F8F1E1"/>
<path d="M0 34.4837C0 32.6843 0.755805 28.9927 0.755805 21.3221V3.48899C0.755805 2.1627 2.36452 0.980016 3.28922 0.980016C6.2702 0.980016 8.21248 1.97263 9.48763 3.34538L23.5565 18.6949C23.6055 18.7471 23.6689 18.7835 23.7387 18.7994C23.8084 18.8153 23.8814 18.81 23.9481 18.7841C24.0148 18.7582 24.0723 18.713 24.1131 18.6542C24.1539 18.5954 24.1762 18.5257 24.1772 18.4541V15.1638C24.1772 4.21972 22.7078 2.21339 24.0252 0.75193C25.1441 -0.304036 27.5804 -0.304037 28.8429 1.03493C29.6874 2.13313 28.4207 4.77727 28.4207 15.1638V32.5365C28.4111 32.9454 28.3195 33.3481 28.1514 33.7209C27.9833 34.0937 27.742 34.4289 27.4419 34.7066C27.1419 34.9843 26.7891 35.1989 26.4045 35.3377C26.0199 35.4764 25.6114 35.5365 25.2032 35.5143C24.872 35.5315 24.543 35.4507 24.2574 35.282L5.49329 14.3612C5.45203 14.3163 5.39824 14.2849 5.3389 14.271C5.27956 14.257 5.2174 14.2613 5.1605 14.2831C5.1036 14.305 5.05458 14.3435 5.0198 14.3935C4.98503 14.4436 4.96611 14.503 4.96549 14.564L4.99505 21.3221C4.99505 28.9927 5.75507 32.6843 5.75507 34.4837C5.75507 35.1933 4.23924 35.5228 2.72764 35.5228C1.37226 35.5228 0 35.168 0 34.4837Z" fill="#F8F1E1"/>
<path d="M74.1783 28.6591V14.0488C74.1783 12.8619 75.6434 12.8154 76.4964 12.8154C81.3689 12.8154 84.0206 16.3677 84.0206 19.6792V30.4712C84.0206 31.9411 87.8503 29.525 89.9319 26.9696C90.3541 26.4501 92.1571 27.1597 91.8742 27.8144C90.7384 30.4163 86.6216 35.5272 81.3183 35.5272C77.2522 35.5229 74.1783 32.3043 74.1783 28.6591Z" fill="#F8F1E1"/>
<path d="M87.6645 23.6917C87.6645 17.6811 92.3471 12.0972 99.4871 12.0972C105.023 12.0972 109.093 15.5523 109.093 19.1003C109.093 23.0792 105.403 26.7709 98.2584 27.1975C98.6939 28.0007 99.3455 28.6658 100.14 29.1175C100.934 29.5692 101.838 29.7893 102.751 29.7529C107.628 29.7529 111.884 24.7814 113.066 23.5988C113.543 23.1764 115.245 23.7888 114.962 24.4435C114.628 25.3432 109.519 35.282 99.3942 35.282C97.8605 35.3015 96.3382 35.0162 94.9156 34.4424C93.493 33.8687 92.1986 33.018 91.1073 31.9397C90.0161 30.8614 89.1498 29.5771 88.5588 28.1612C87.9678 26.7453 87.6638 25.2261 87.6645 23.6917ZM102.189 18.4414C102.189 16.2619 101.007 14.6399 99.7742 14.6399C98.2161 14.6399 97.1268 18.8047 97.1268 21.9303C97.1322 22.8027 97.2113 23.6731 97.3632 24.5322C98.7296 24.1974 99.9457 23.4169 100.82 22.3141C101.693 21.2112 102.175 19.8487 102.189 18.4414Z" fill="#F8F1E1"/>
</g>
<defs>
<clipPath id="clip0_29_32">
<rect width="115" height="36" fill="white"/>
</clipPath>
</defs>
</svg>
