<svg width="35" height="35" viewBox="0 0 35 35" fill="none" xmlns="http://www.w3.org/2000/svg">
<path d="M17.5 10.4249C16.8075 10.4249 16.1306 10.6295 15.5548 11.0128C14.979 11.3961 14.5303 11.941 14.2653 12.5785C14.0003 13.2159 13.931 13.9174 14.0661 14.5941C14.2011 15.2708 14.5346 15.8924 15.0243 16.3803C15.5139 16.8682 16.1378 17.2005 16.8169 17.3351C17.4961 17.4697 18.2001 17.4006 18.8398 17.1366C19.4796 16.8725 20.0264 16.4254 20.4111 15.8517C20.7958 15.278 21.0012 14.6035 21.0012 13.9135C21.0001 12.9886 20.6309 12.1018 19.9745 11.4478C19.3182 10.7938 18.4282 10.4259 17.5 10.4249ZM17.5 15.6578C17.1537 15.6578 16.8153 15.5555 16.5274 15.3638C16.2395 15.1722 16.0151 14.8998 15.8826 14.581C15.7501 14.2623 15.7155 13.9116 15.783 13.5732C15.8506 13.2348 16.0173 12.924 16.2621 12.6801C16.5069 12.4361 16.8189 12.27 17.1585 12.2027C17.498 12.1354 17.85 12.1699 18.1699 12.302C18.4898 12.434 18.7632 12.6576 18.9556 12.9444C19.1479 13.2313 19.2506 13.5685 19.2506 13.9135C19.25 14.376 19.0654 14.8193 18.7372 15.1463C18.4091 15.4733 17.9641 15.6573 17.5 15.6578Z" fill="black"/>
<path d="M24.2393 7.20111C22.5729 5.53896 20.3485 4.55157 17.9953 4.42952C15.6421 4.30747 13.327 5.0594 11.4968 6.54019C9.66662 8.02098 8.45109 10.1257 8.08481 12.448C7.71854 14.7704 8.22748 17.1458 9.51341 19.1158L16.1395 29.2645C16.2869 29.4903 16.4886 29.6759 16.7261 29.8043C16.9636 29.9327 17.2294 30 17.4996 30C17.7697 30 18.0356 29.9327 18.2731 29.8043C18.5106 29.6759 18.7122 29.4903 18.8596 29.2645L25.4859 19.1158C26.6791 17.2883 27.2065 15.1072 26.9795 12.938C26.7525 10.7688 25.7851 8.74332 24.2393 7.20111ZM24.0166 18.1607L17.4996 28.142L10.9826 18.1607C8.98774 15.1055 9.41559 11.0167 11.9999 8.43828C12.7221 7.7177 13.5795 7.1461 14.5232 6.75613C15.4668 6.36615 16.4782 6.16543 17.4996 6.16543C18.521 6.16543 19.5324 6.36615 20.476 6.75613C21.4197 7.1461 22.2771 7.7177 22.9993 8.43828C25.5836 11.0167 26.0114 15.1055 24.0166 18.1607Z" fill="black"/>
</svg>
