<svg width="115" height="36" viewBox="0 0 115 36" fill="none" xmlns="http://www.w3.org/2000/svg">
<g clip-path="url(#clip0_13_16)">
<path d="M31.0807 24.4013C31.0807 18.0106 36.7556 12.8026 43.7478 12.8026C50.74 12.8026 56.4782 18.0106 56.4782 24.4013C56.4782 30.792 50.8118 36.0127 43.7605 36.0127C36.7091 36.0127 31.0807 30.8384 31.0807 24.4013ZM46.6486 24.4013C46.6486 19.4298 45.3819 15.4087 43.7605 15.4087C42.1391 15.4087 40.9231 19.4298 40.9231 24.4013C40.9231 29.3728 42.1898 33.3939 43.7605 33.3939C45.3312 33.3939 46.6486 29.3728 46.6486 24.4013Z" fill="#F3A24D"/>
<path d="M58.8554 28.6632V18.1288H58.1671C56.0348 18.1288 56.0855 15.3284 56.0855 14.1922C56.0651 13.9739 56.1304 13.7563 56.2675 13.5852C56.4046 13.4142 56.6028 13.3032 56.8202 13.2756H58.8554V7.88173C58.8554 4.47307 61.6928 0.0211182 69.027 0.0211182C74.4696 0.0211182 79.2029 2.86378 79.2029 6.64836C79.2209 7.21905 79.124 7.78753 78.9181 8.32005C78.7122 8.85257 78.4014 9.33827 78.0042 9.74831C77.607 10.1584 77.1315 10.4844 76.6059 10.707C76.0803 10.9297 75.5154 11.0444 74.9446 11.0444C74.3739 11.0444 73.8089 10.9297 73.2833 10.707C72.7578 10.4844 72.2823 10.1584 71.8851 9.74831C71.4879 9.33827 71.1771 8.85257 70.9712 8.32005C70.7653 7.78753 70.6684 7.21905 70.6864 6.64836C70.6982 5.83109 70.9396 5.03363 71.3832 4.34718C71.8267 3.66072 72.4544 3.11299 73.1945 2.76663C71.0157 1.92186 68.6977 2.81732 68.6977 7.3622V13.2756H69.6012C71.6406 13.2756 71.6829 15.7635 71.6829 17.3432C71.6726 17.533 71.5987 17.7138 71.473 17.8563C71.3474 17.9989 71.1773 18.0949 70.9904 18.1288H68.6977V34.2936C68.6977 35.4762 67.2283 35.5269 66.3289 35.5269C61.4563 35.5269 58.8554 31.9747 58.8554 28.6632Z" fill="#F3A24D"/>
<path d="M0 34.4836C0 32.6843 0.755805 28.9926 0.755805 21.3221V3.4889C0.755805 2.16261 2.36452 0.979924 3.28922 0.979924C6.2702 0.979924 8.21248 1.97254 9.48763 3.34529L23.5565 18.6948C23.6055 18.747 23.6689 18.7834 23.7387 18.7993C23.8084 18.8152 23.8814 18.8099 23.9481 18.784C24.0148 18.7581 24.0723 18.7129 24.1131 18.6541C24.1539 18.5953 24.1762 18.5256 24.1772 18.4541V15.1637C24.1772 4.21963 22.7078 2.2133 24.0252 0.751839C25.1441 -0.304128 27.5804 -0.304128 28.8429 1.03484C29.6874 2.13304 28.4207 4.77718 28.4207 15.1637V32.5364C28.4111 32.9453 28.3195 33.348 28.1514 33.7208C27.9833 34.0936 27.742 34.4288 27.4419 34.7065C27.1419 34.9842 26.7891 35.1988 26.4045 35.3376C26.0199 35.4763 25.6114 35.5364 25.2032 35.5142C24.872 35.5314 24.543 35.4506 24.2574 35.2819L5.49329 14.3611C5.45203 14.3162 5.39824 14.2848 5.3389 14.2709C5.27956 14.257 5.2174 14.2612 5.1605 14.283C5.1036 14.3049 5.05458 14.3434 5.0198 14.3934C4.98503 14.4435 4.96611 14.5029 4.96549 14.5639L4.99505 21.3221C4.99505 28.9926 5.75507 32.6843 5.75507 34.4836C5.75507 35.1932 4.23924 35.5227 2.72764 35.5227C1.37226 35.5227 0 35.1679 0 34.4836Z" fill="#F3A24D"/>
<path d="M74.1783 28.6589V14.0486C74.1783 12.8617 75.6434 12.8152 76.4964 12.8152C81.3689 12.8152 84.0206 16.3675 84.0206 19.679V30.471C84.0206 31.9409 87.8503 29.5248 89.9319 26.9694C90.3541 26.4498 92.1571 27.1595 91.8742 27.8142C90.7384 30.4161 86.6216 35.5269 81.3183 35.5269C77.2522 35.5227 74.1783 32.3041 74.1783 28.6589Z" fill="#F3A24D"/>
<path d="M87.6645 23.6916C87.6645 17.6811 92.3471 12.0971 99.4871 12.0971C105.023 12.0971 109.093 15.5523 109.093 19.1003C109.093 23.0792 105.403 26.7708 98.2584 27.1975C98.6939 28.0007 99.3455 28.6658 100.14 29.1175C100.934 29.5691 101.838 29.7892 102.751 29.7529C107.628 29.7529 111.884 24.7814 113.066 23.5987C113.543 23.1763 115.245 23.7888 114.962 24.4435C114.628 25.3432 109.519 35.2819 99.3942 35.2819C97.8605 35.3015 96.3382 35.0161 94.9156 34.4424C93.493 33.8686 92.1986 33.0179 91.1073 31.9397C90.0161 30.8614 89.1498 29.577 88.5588 28.1612C87.9678 26.7453 87.6638 25.226 87.6645 23.6916ZM102.189 18.4414C102.189 16.2619 101.007 14.6399 99.7742 14.6399C98.2161 14.6399 97.1268 18.8046 97.1268 21.9303C97.1322 22.8027 97.2113 23.6731 97.3632 24.5322C98.7296 24.1973 99.9457 23.4169 100.82 22.314C101.693 21.2112 102.175 19.8486 102.189 18.4414Z" fill="#F3A24D"/>
</g>
<defs>
<clipPath id="clip0_13_16">
<rect width="115" height="36" fill="white"/>
</clipPath>
</defs>
</svg>
