<svg width="26" height="25" viewBox="0 0 26 25" fill="none" xmlns="http://www.w3.org/2000/svg">
<path fill-rule="evenodd" clip-rule="evenodd" d="M14.1905 2.38095C16.5585 2.38095 18.8295 3.32164 20.5039 4.99607C22.1784 6.6705 23.119 8.94152 23.119 11.3095C23.119 13.6775 22.1784 15.9485 20.5039 17.623C18.8295 19.2974 16.5585 20.2381 14.1905 20.2381C11.8333 20.2381 9.57213 19.306 7.89993 17.6458C7.89081 17.6361 7.8815 17.6265 7.87199 17.617C7.86338 17.6084 7.85468 17.6 7.84587 17.5917C6.19093 15.9203 5.26191 13.6628 5.26191 11.3095C5.26191 8.94152 6.20259 6.6705 7.87702 4.99607C9.55145 3.32164 11.8225 2.38095 14.1905 2.38095ZM5.39242 18.4159C3.77489 16.4134 2.88095 13.9076 2.88095 11.3095C2.88095 8.31005 4.07249 5.43343 6.19344 3.31248C8.31438 1.19154 11.191 0 14.1905 0C17.1899 0 20.0666 1.19154 22.1875 3.31248C24.3085 5.43343 25.5 8.31005 25.5 11.3095C25.5 14.309 24.3085 17.1856 22.1875 19.3066C20.0666 21.4275 17.1899 22.619 14.1905 22.619C11.5886 22.619 9.07911 21.7224 7.07515 20.1003L2.53302 24.6506C2.06853 25.1159 1.31476 25.1166 0.849434 24.6521C0.384109 24.1876 0.383436 23.4338 0.847931 22.9685L5.39242 18.4159Z" fill="#F5F5F5"/>
</svg>
