<svg width="19" height="20" viewBox="0 0 19 20" fill="none" xmlns="http://www.w3.org/2000/svg">
<path fill-rule="evenodd" clip-rule="evenodd" d="M17.5358 8.67629C17.6062 9.1071 17.6429 9.54927 17.6429 10C17.6429 10.4507 17.6062 10.8929 17.5358 11.3237L13.4281 11.0748C13.5215 10.7324 13.5714 10.372 13.5714 10C13.5714 9.62799 13.5215 9.26763 13.4281 8.92525L17.5358 8.67629ZM17.1975 7.33716L12.7922 7.60415C12.5419 7.26079 12.2392 6.95808 11.8959 6.70777L12.1628 2.3025C14.518 3.11708 16.3829 4.98204 17.1975 7.33716ZM10.8237 1.96419L10.5748 6.07193C10.2324 5.97846 9.87201 5.92857 9.5 5.92857C9.12799 5.92857 8.76763 5.97846 8.42525 6.07193L8.17629 1.96419C8.6071 1.89376 9.04927 1.85714 9.5 1.85714C9.95073 1.85714 10.3929 1.89376 10.8237 1.96419ZM6.83716 2.3025L7.10415 6.70777C6.76079 6.95808 6.45808 7.26079 6.20777 7.60415L1.8025 7.33716C2.61708 4.98204 4.48204 3.11708 6.83716 2.3025ZM1.46419 8.67629L5.57193 8.92525C5.47847 9.26763 5.42857 9.62799 5.42857 10C5.42857 10.372 5.47847 10.7324 5.57193 11.0748L1.46419 11.3237C1.39376 10.8929 1.35714 10.4507 1.35714 10C1.35714 9.54927 1.39376 9.1071 1.46419 8.67629ZM1.8025 12.6628L6.20777 12.3958C6.45808 12.7392 6.76079 13.0419 7.10415 13.2922L6.83716 17.6975C4.48204 16.8829 2.61708 15.018 1.8025 12.6628ZM8.17629 18.0358L8.42525 13.9281C8.76763 14.0215 9.12799 14.0714 9.5 14.0714C9.87201 14.0714 10.2324 14.0215 10.5748 13.9281L10.8237 18.0358C10.3929 18.1062 9.95073 18.1429 9.5 18.1429C9.04927 18.1429 8.6071 18.1062 8.17629 18.0358ZM12.1628 17.6975L11.8959 13.2922C12.2392 13.0419 12.5419 12.7392 12.7922 12.3958L17.1975 12.6628C16.3829 15.018 14.518 16.8829 12.1628 17.6975ZM19 10C19 4.75329 14.7467 0.5 9.5 0.5C4.25329 0.5 0 4.75329 0 10C0 15.2467 4.25329 19.5 9.5 19.5C14.7467 19.5 19 15.2467 19 10ZM9.5 7.28571C10.9991 7.28571 12.2143 8.50094 12.2143 10C12.2143 11.4991 10.9991 12.7143 9.5 12.7143C8.00094 12.7143 6.78572 11.4991 6.78572 10C6.78572 8.50094 8.00094 7.28571 9.5 7.28571Z" fill="#3A6472"/>
</svg>
